<?xml version="1.0" standalone="no"?>
<!DOCTYPE svg PUBLIC "-//W3C//DTD SVG 20010904//EN"
 "http://www.w3.org/TR/2001/REC-SVG-20010904/DTD/svg10.dtd">
<svg version="1.0" xmlns="http://www.w3.org/2000/svg"
 width="512.000000pt" height="512.000000pt" viewBox="0 0 512.000000 512.000000"
 preserveAspectRatio="xMidYMid meet">

<g transform="translate(0.000000,512.000000) scale(0.100000,-0.100000)"
fill="#000000" stroke="none">
<path d="M3250 4278 c-62 -24 -210 -28 -311 -10 -48 9 -66 8 -120 -9 -35 -11
-75 -27 -88 -35 -17 -12 -35 -14 -65 -9 -84 14 -229 10 -275 -8 -24 -10 -89
-24 -145 -32 -92 -13 -105 -18 -156 -55 -30 -22 -84 -55 -120 -72 -36 -17 -76
-39 -90 -48 -14 -9 -47 -25 -73 -35 -40 -15 -58 -31 -101 -89 -29 -39 -80 -94
-113 -123 -79 -69 -97 -114 -91 -226 4 -72 2 -87 -19 -126 -27 -51 -29 -71 -8
-71 17 0 17 -1 15 -121 -1 -63 4 -103 19 -147 12 -34 21 -74 21 -89 0 -15 7
-48 16 -73 9 -25 18 -94 21 -155 4 -97 11 -127 53 -255 30 -89 53 -178 59
-230 6 -56 26 -130 56 -215 106 -293 113 -320 125 -425 8 -78 24 -143 60 -252
28 -81 50 -159 50 -172 0 -15 -21 -50 -52 -88 -39 -47 -68 -100 -110 -199 -79
-187 -98 -255 -98 -356 0 -47 -5 -94 -12 -106 -6 -12 -37 -47 -68 -77 -56 -56
-150 -216 -150 -257 0 -10 -9 -36 -20 -58 -11 -22 -20 -43 -20 -47 0 -4 38 -8
85 -8 84 0 85 0 90 28 11 51 32 77 64 79 23 2 35 -3 47 -22 15 -24 44 -35 44
-17 0 4 -11 23 -25 42 -14 19 -25 35 -25 37 0 10 20 -1 46 -25 23 -21 33 -41
38 -75 6 -37 11 -47 27 -47 15 0 19 7 19 36 0 32 1 34 16 20 24 -25 49 -35 62
-27 17 10 26 67 13 75 -22 14 -12 64 19 98 25 26 27 34 15 36 -9 2 -34 -8 -56
-22 -35 -24 -39 -31 -39 -68 0 -24 7 -49 16 -59 9 -10 14 -24 11 -31 -4 -8 -8
-5 -12 9 -4 12 -16 25 -27 29 -17 5 -19 12 -14 45 5 34 4 39 -14 39 -10 0 -35
14 -55 31 -37 33 -47 69 -19 69 14 0 16 8 10 46 -7 54 13 58 26 6 5 -18 12
-32 16 -32 10 0 42 65 42 85 0 8 7 15 15 15 9 0 15 -9 15 -24 0 -16 7 -27 20
-30 11 -3 29 -9 40 -12 14 -4 20 -1 20 9 0 9 -4 17 -9 19 -5 2 -13 15 -16 31
-11 42 12 33 32 -13 22 -51 35 -52 17 -2 -7 20 -13 44 -14 52 0 9 -5 21 -12
28 -24 24 -50 132 -32 132 4 0 28 -13 53 -28 69 -43 87 -45 133 -15 35 24 40
25 55 11 11 -12 14 -26 9 -52 -8 -40 -22 -54 -39 -37 -20 20 -35 12 -47 -23
-6 -19 -18 -40 -26 -46 -7 -7 -14 -17 -14 -22 0 -6 7 -5 16 3 27 22 7 -36 -47
-139 -39 -74 -49 -102 -49 -142 0 -52 12 -69 35 -50 8 7 12 23 9 43 -4 23 5
51 30 102 19 39 35 62 36 52 0 -16 2 -16 25 -1 17 11 25 25 25 45 0 16 5 29
10 29 18 0 30 -49 24 -93 -6 -44 -40 -184 -50 -211 -9 -24 193 -24 211 1 10
13 9 22 -1 42 -7 14 -20 78 -29 141 -19 125 -57 308 -74 352 -6 15 -21 37 -35
49 -18 16 -27 36 -32 76 -5 44 -9 51 -20 42 -16 -13 -19 -45 -4 -54 6 -3 10
-17 10 -30 0 -28 -42 -55 -86 -55 -33 0 -94 44 -94 68 0 28 52 142 65 142 7 0
18 7 26 16 8 10 21 13 36 10 21 -6 22 -4 16 25 -5 24 -2 35 12 45 17 12 17 15
1 48 -9 19 -16 37 -16 42 0 4 -18 31 -41 60 -31 40 -47 75 -64 141 -13 48 -42
138 -64 199 -22 62 -44 147 -50 195 -23 172 -33 217 -67 299 -96 231 -106 272
-114 445 -4 88 -13 237 -20 330 -8 124 -8 186 0 230 10 60 3 120 -16 120 -5 0
-15 -15 -23 -32 -17 -39 -31 -41 -66 -10 -22 18 -27 33 -31 87 -3 36 -10 82
-15 103 -12 44 -2 168 16 213 7 16 37 51 67 77 53 45 58 47 116 47 60 0 63 1
84 35 21 31 48 47 48 28 0 -10 45 -63 53 -63 9 0 -20 78 -43 115 -23 37 -24
45 -9 45 18 0 47 38 60 79 6 20 15 40 19 44 8 9 13 7 78 -28 18 -9 36 -15 38
-12 10 10 -21 47 -48 56 -24 9 -27 15 -30 63 -3 52 -4 53 -35 56 -32 3 -32 2
-30 -35 2 -37 1 -38 -33 -39 -72 -1 -129 30 -92 50 9 5 25 20 35 32 9 12 31
25 47 29 16 4 32 11 36 16 3 5 21 16 40 24 19 8 34 19 34 24 0 6 6 11 13 11 6
0 37 19 67 43 84 66 100 70 241 68 85 -1 87 -1 87 -26 0 -18 24 -48 97 -117
53 -51 109 -98 123 -105 14 -8 56 -38 93 -68 65 -54 67 -56 73 -114 9 -78 39
-123 85 -126 l33 -3 -4 74 c-3 40 -1 77 4 82 17 17 -10 52 -40 52 -34 0 -57
14 -48 29 4 6 20 11 35 11 17 0 40 11 59 30 17 16 46 36 65 44 30 12 34 18 33
51 -1 24 -9 42 -21 51 -38 28 10 15 58 -16 67 -42 95 -48 113 -21 12 17 25 21
68 21 28 0 57 -5 64 -12 9 -9 12 -8 16 3 15 47 11 86 -16 152 l-28 70 22 24
c31 33 58 29 100 -14 57 -61 145 -193 128 -193 -5 0 -12 5 -15 10 -11 17 -37
11 -42 -11 -5 -19 -11 -20 -51 -14 -40 6 -44 5 -38 -11 4 -10 -1 -25 -13 -38
-36 -40 -35 -60 4 -79 20 -9 44 -17 54 -17 10 0 23 -12 29 -26 11 -24 16 -25
75 -23 71 3 107 -11 107 -44 0 -12 11 -34 24 -48 38 -41 57 -156 63 -371 3
-132 1 -188 -6 -188 -6 0 -11 6 -11 14 0 7 -7 19 -15 26 -8 7 -15 21 -15 32 0
11 -5 29 -11 40 -11 21 -12 20 -24 -9 -11 -25 -21 -32 -57 -39 -23 -4 -60 -7
-81 -5 -29 2 -45 -3 -63 -20 -13 -12 -21 -26 -17 -32 3 -5 -3 -6 -17 -2 -12 4
-25 3 -29 -1 -3 -5 -17 -15 -30 -22 -21 -13 -26 -11 -48 12 -22 24 -43 34 -43
21 0 -3 22 -52 50 -108 40 -82 51 -119 60 -187 6 -47 19 -112 30 -145 12 -41
21 -107 25 -205 3 -80 11 -174 16 -209 7 -46 5 -121 -6 -270 -10 -130 -13
-226 -8 -261 l9 -55 12 100 c17 131 43 235 59 235 9 0 13 17 13 56 0 30 5 65
11 76 11 21 12 21 24 -8 13 -28 13 -26 14 36 1 53 7 75 31 117 38 66 55 78 46
32 -3 -19 -10 -95 -16 -170 -6 -93 -17 -161 -34 -215 -13 -43 -27 -93 -31
-111 -4 -22 -15 -35 -35 -43 -33 -14 -35 -18 -55 -111 -22 -110 -29 -185 -16
-193 19 -12 13 -98 -9 -134 -11 -18 -20 -47 -20 -65 0 -17 -9 -59 -20 -92
-101 -310 -111 -332 -195 -442 -4 -7 -157 -34 -162 -29 -3 3 6 19 21 36 14 17
26 38 26 45 0 7 3 22 7 32 3 10 -10 -6 -30 -36 -21 -29 -37 -57 -37 -62 0 -5
-17 -28 -39 -52 -21 -23 -53 -69 -71 -102 -18 -33 -41 -72 -51 -86 -11 -15
-48 -82 -85 -150 -36 -68 -90 -165 -121 -216 -95 -160 -90 -163 339 -163 l307
0 3 26 c2 20 11 29 38 38 29 9 35 16 33 36 -5 53 8 129 21 124 7 -3 21 4 31
16 24 26 86 43 117 31 13 -5 35 -7 49 -4 23 4 33 -6 92 -93 42 -62 86 -112
117 -136 l50 -38 100 0 101 0 -16 31 c-15 28 -18 29 -29 14 -11 -16 -17 -14
-60 21 -52 42 -98 87 -149 146 -18 21 -44 49 -59 64 -27 26 -38 52 -18 39 6
-3 10 3 10 14 0 11 4 23 10 26 13 8 13 68 -2 179 l-11 90 34 63 c31 57 37 63
65 63 21 0 47 -12 79 -38 123 -96 256 -216 314 -283 35 -41 71 -81 80 -89 9
-8 29 -35 46 -59 16 -24 46 -54 65 -66 25 -16 40 -35 48 -61 7 -22 32 -61 57
-89 25 -27 45 -53 45 -57 0 -5 28 -8 62 -8 l63 0 -159 159 c-87 87 -157 163
-155 169 2 6 28 29 57 51 70 52 149 144 178 206 17 36 24 68 24 116 0 80 -15
111 -149 309 -87 129 -96 139 -205 221 -63 48 -136 95 -163 105 -26 9 -72 35
-102 57 -30 22 -86 57 -125 77 -55 29 -78 48 -103 85 -18 27 -61 78 -97 114
-68 70 -116 149 -116 192 0 15 14 71 30 125 23 75 32 126 36 209 4 72 12 130
25 168 16 45 19 72 14 120 -5 47 -1 83 15 147 12 50 24 144 29 226 5 78 12
148 17 155 5 8 9 102 9 209 0 187 1 197 23 224 30 39 28 72 -7 105 -42 39
-107 260 -82 275 19 12 12 26 -11 23 -21 -2 -23 3 -29 63 -5 59 -11 73 -62
146 -30 44 -80 102 -109 130 -29 27 -61 64 -70 82 -15 28 -22 32 -55 31 -21 0
-63 -10 -93 -21z m-157 -240 c29 -11 37 -38 11 -38 -16 0 -104 48 -104 57 0 6
58 -5 93 -19z m327 -1031 c12 -38 7 -67 -6 -31 -4 10 -13 34 -20 53 -8 18 -14
38 -14 44 0 19 26 -26 40 -66z m-1783 -304 c-3 -10 -5 -2 -5 17 0 19 2 27 5
18 2 -10 2 -26 0 -35z m1922 -989 c12 -15 21 -33 21 -42 0 -8 7 -20 16 -27 12
-8 19 -38 25 -106 5 -52 14 -116 19 -142 12 -60 13 -178 1 -209 -5 -13 -16
-49 -25 -80 -14 -48 -24 -63 -61 -89 -25 -18 -45 -36 -45 -41 0 -11 33 6 50
26 14 18 30 21 30 6 0 -12 -32 -59 -74 -109 -15 -19 -34 -47 -40 -62 -20 -48
-149 -189 -174 -189 -7 0 -17 11 -24 24 -13 31 10 134 87 381 98 314 107 353
114 472 4 69 11 117 19 125 6 6 12 26 12 43 0 52 18 59 49 19z m147 -129 c-2
-7 2 -12 11 -11 9 0 28 -18 42 -42 20 -33 40 -49 90 -72 35 -17 103 -57 153
-90 49 -33 95 -60 103 -60 14 0 83 -45 191 -126 81 -60 144 -144 149 -198 4
-44 -5 -51 -47 -33 -18 8 -78 17 -133 21 -55 4 -120 11 -144 16 -25 4 -59 4
-80 -2 -40 -11 -258 -107 -339 -150 -28 -15 -71 -31 -93 -34 l-42 -7 7 29 c4
16 20 45 35 64 62 80 70 100 67 178 -2 40 1 75 5 78 5 3 9 -1 9 -9 0 -8 9 -22
20 -32 18 -16 20 -16 26 -2 3 9 -3 47 -15 83 -12 37 -21 77 -21 89 0 13 -9 76
-20 140 -22 126 -23 172 -2 168 6 -2 12 4 12 13 0 8 5 12 11 9 6 -4 8 -13 5
-20z m-1696 -512 c0 -10 14 -38 30 -62 39 -57 40 -103 4 -134 -14 -12 -46 -47
-70 -78 -46 -60 -72 -73 -119 -60 -24 6 -29 13 -27 32 2 13 3 42 3 64 0 41 3
49 39 125 20 42 108 130 130 130 6 0 10 -8 10 -17z m2500 -165 c0 -14 -19 1
-31 25 -12 22 -12 22 10 3 11 -11 21 -23 21 -28z m-420 -109 c0 -6 -4 -7 -10
-4 -5 3 -10 11 -10 16 0 6 5 7 10 4 6 -3 10 -11 10 -16z m36 -89 c29 -44 27
-63 -4 -34 -18 18 -39 74 -27 74 2 0 17 -18 31 -40z m221 -4 c23 -2 50 -11 58
-20 12 -11 35 -16 80 -16 80 0 95 -6 95 -37 0 -55 -72 -156 -154 -215 -56 -40
-71 -37 -105 25 -17 28 -48 70 -71 92 -31 30 -40 47 -40 72 0 23 5 33 15 33
11 0 15 11 15 39 0 39 1 40 33 36 17 -2 51 -6 74 -9z m-1237 -13 c0 -5 -9 -21
-20 -38 -13 -19 -18 -39 -15 -55 4 -20 -5 -38 -44 -85 -28 -33 -75 -91 -105
-130 -58 -74 -156 -175 -156 -161 0 5 17 32 38 60 82 109 102 141 102 162 0
13 5 26 10 29 16 10 42 79 31 83 -12 4 2 55 24 89 9 14 31 31 48 38 35 15 87
20 87 8z m250 -323 c-22 -31 -58 -56 -67 -46 -8 7 62 76 77 76 6 0 2 -13 -10
-30z"/>
<path d="M3527 1654 c-7 -7 23 -64 34 -64 4 0 7 15 6 32 -2 31 -23 48 -40 32z"/>
<path d="M3580 1231 c0 -11 5 -23 10 -26 6 -3 10 3 10 14 0 11 -4 23 -10 26
-5 3 -10 -3 -10 -14z"/>
<path d="M4336 1116 c20 -27 37 -35 28 -13 -2 7 -14 18 -25 25 -21 13 -21 13
-3 -12z"/>
<path d="M3095 3380 c3 -5 11 -10 16 -10 6 0 7 5 4 10 -3 6 -11 10 -16 10 -6
0 -7 -4 -4 -10z"/>
<path d="M2020 3217 c-31 -10 -33 -11 -11 -15 13 -2 40 -1 60 3 31 6 33 9 16
15 -25 10 -22 11 -65 -3z"/>
<path d="M2690 3194 c-27 -7 -108 -13 -205 -14 -105 0 -167 -5 -181 -13 -12
-7 -44 -39 -71 -73 -51 -61 -108 -114 -123 -114 -9 0 -84 -140 -77 -146 2 -3
16 14 30 38 35 57 225 255 257 266 14 6 95 13 180 17 85 3 179 11 207 16 34 7
64 7 85 1 57 -17 150 -49 222 -76 70 -26 112 -33 101 -17 -3 5 -20 13 -38 16
-17 4 -61 22 -97 40 -77 38 -190 76 -222 74 -13 -1 -43 -7 -68 -15z"/>
<path d="M2411 2363 c-2 -39 20 -67 77 -102 70 -41 172 -54 213 -28 23 15 27
15 57 -3 24 -15 56 -21 115 -24 46 -2 99 -11 120 -19 45 -19 46 -13 6 36 -47
56 -138 102 -256 127 -110 23 -153 19 -186 -18 -14 -16 -13 -17 23 -18 44 -2
110 -22 110 -34 0 -24 -102 -26 -173 -4 -63 21 -85 38 -96 78 -7 24 -9 26 -10
9z"/>
<path d="M1995 2343 c-11 -3 -28 -11 -37 -17 -15 -10 0 -14 82 -22 98 -9 100
-9 100 12 0 14 -8 24 -22 28 -26 7 -94 6 -123 -1z"/>
<path d="M2967 2342 c-24 -5 -16 -25 14 -33 37 -11 109 -10 109 1 0 20 -82 42
-123 32z"/>
<path d="M1976 2274 c-25 -14 -27 -17 -13 -31 21 -21 84 -34 202 -42 55 -3
106 -10 113 -14 19 -12 14 7 -8 36 -13 16 -41 32 -75 42 -51 14 -57 14 -80 -1
-23 -15 -27 -15 -65 5 -22 12 -42 21 -43 21 -1 -1 -15 -8 -31 -16z"/>
<path d="M2312 2133 c-3 -157 -15 -232 -53 -347 -16 -49 -28 -97 -27 -105 2
-9 20 34 41 94 49 144 83 385 64 458 -15 55 -22 24 -25 -100z"/>
<path d="M2813 2073 c9 -2 23 -2 30 0 6 3 -1 5 -18 5 -16 0 -22 -2 -12 -5z"/>
<path d="M2615 1627 c-22 -5 -77 -20 -121 -33 -100 -29 -97 -29 -161 1 -65 30
-69 20 -8 -19 36 -22 43 -31 34 -42 -23 -28 19 -26 88 4 37 17 96 38 130 47
54 15 95 39 82 48 -2 2 -22 -1 -44 -6z"/>
<path d="M3410 1500 c0 -23 -58 -168 -100 -250 -16 -30 -34 -73 -41 -95 -6
-22 -34 -75 -61 -119 -27 -43 -46 -81 -44 -84 9 -8 37 19 62 60 14 22 32 38
43 38 35 0 54 42 131 294 30 98 39 176 20 176 -5 0 -10 -9 -10 -20z"/>
<path d="M2227 1343 c-42 -11 -6 -24 88 -29 120 -8 430 -11 464 -5 22 4 22 4
5 15 -11 6 -89 12 -194 13 -96 2 -213 5 -260 7 -47 3 -93 2 -103 -1z"/>
<path d="M2160 1330 c0 -5 5 -10 11 -10 5 0 7 5 4 10 -3 6 -8 10 -11 10 -2 0
-4 -4 -4 -10z"/>
<path d="M2375 1146 c19 -15 19 -15 -10 -17 l-30 -1 35 -10 c56 -16 217 5 184
24 -5 3 -52 9 -104 12 -87 7 -93 6 -75 -8z"/>
<path d="M3150 1073 c-114 -123 -201 -195 -296 -244 -118 -62 -204 -76 -359
-60 -136 14 -216 48 -287 125 -51 55 -62 46 -25 -19 34 -61 140 -113 266 -131
53 -7 124 -14 158 -14 l62 0 -17 -29 c-9 -16 -14 -32 -11 -35 9 -9 168 67 245
117 76 50 195 167 268 264 25 34 54 69 62 78 9 9 14 18 12 21 -3 3 -38 -30
-78 -73z"/>
<path d="M3180 908 c-19 -12 -37 -23 -39 -25 -2 -1 2 -9 9 -18 9 -11 17 -12
32 -4 17 9 43 57 36 65 -2 1 -19 -7 -38 -18z"/>
<path d="M2070 748 c0 -7 5 -20 10 -28 8 -12 10 -11 10 7 0 12 -4 25 -10 28
-5 3 -10 0 -10 -7z"/>
<path d="M1970 490 c0 -5 5 -10 11 -10 5 0 7 5 4 10 -3 6 -8 10 -11 10 -2 0
-4 -4 -4 -10z"/>
<path d="M1918 283 c6 -2 18 -2 25 0 6 3 1 5 -13 5 -14 0 -19 -2 -12 -5z"/>
<path d="M2063 168 c-6 -22 -7 -38 -2 -38 13 0 21 24 17 52 -2 19 -5 17 -15
-14z"/>
<path d="M3366 21 c-18 -7 -18 -8 -2 -14 27 -10 76 -8 76 3 0 6 -6 10 -14 10
-8 0 -20 2 -28 4 -7 3 -22 1 -32 -3z"/>
</g>
</svg>
